<svg xmlns="http://www.w3.org/2000/svg" viewBox="0 0 500 500" enable-background="new 0 0 500 500"><style type="text/css">.st0{fill:#FFFFFF;} .st1{fill:#D9C075;} .st2{fill:#EBDF91;} .st3{fill:#BD924D;} .st4{fill:#CCA962;} .st5{fill:#414042;} .st6{fill:url(#SVGID_1_);} .st7{fill:url(#SVGID_00000065762986436398232660000000965514949627815066_);} .st8{fill:url(#SVGID_00000079477618077982026540000000185833735181276569_);} .st9{fill:url(#SVGID_00000145035508652284097400000001058286646923137196_);} .st10{fill:url(#SVGID_00000054247584817494433100000010231013204051319937_);} .st11{fill:url(#SVGID_00000067944543001439713390000000306007734179051181_);} .st12{fill:url(#SVGID_00000139974742655354802410000017828853815838475657_);} .st13{fill:url(#SVGID_00000169517863782807265820000011646055262364962225_);} .st14{fill:url(#SVGID_00000005953453394854762030000013696636441673727931_);} .st15{fill:url(#SVGID_00000013876577819880496870000011168959965796582034_);} .st16{fill:url(#SVGID_00000105427191453342019860000000356020112991468986_);} .st17{fill:url(#SVGID_00000131352447363371412300000009556541184847559051_);} .st18{fill:url(#SVGID_00000149340420413981458130000014621641204632133259_);}</style><path class="st0" d="M3864.9-1849.1c150.8 0 301.5 0 452.3-.1 3.6 0 4.7.6 4.7 4.5-.1 554.3-.1 1108.5 0 1662.8 0 4-1.2 4.4-4.7 4.4-249.1-.1-498.1-.1-747.2-.1 2.7-1.9 5.5-3.8 8.2-5.8l177.8-131.6c7.4-5.5 9.5-13.3 6-21.9l-12.4-30.8c2.8-4.1 7.3-6.1 11-9.1 7.5-5.9 9.7-13.5 6-22.5-15.3-37.7-30.7-75.3-45.9-113-1.2-3-3.2-5.9-2.7-9.4.3.4.7.7.9 1.1 16.8 34.9 33.5 69.7 50.2 104.6 12.5 26.1 25.1 52.2 37.7 78.3 2.2 4.7 4.9 5.5 9.5 2.8 3.4-2 6.9-3.9 10.3-6 78.6-46.8 157.2-93.6 235.7-140.4 5.9-3.5 6-7.3.5-11.3-11.8-8.7-23.8-17.3-34.9-26.9l39.6-23.9c4.8-2.9 5-7.3.6-10.6-6.3-4.8-12.7-9.6-19.1-14.4-22.6-17.1-44.3-35.3-65.9-53.6-1.4-1.2-3.7-2-3.1-4.6.7.3 1.5.6 2.2 1.1l58.2 44.2c21 15.9 42.2 31.6 62.7 48 6.8 5.4 12.7 6.1 20 2.4 6.1-3.1 11.7-6.9 17-11.1 29.9-23.4 57-49.7 83.3-77 23.9-24.9 47.2-50.3 68.8-77.2 8.2-10.2 16.2-20.6 22.4-32.2 3.6-6.6 2.2-10.5-4.6-13.2l-19.3-7.8c2.5-4.9 6.6-8.7 9.8-13 6.9-9.4 14.2-18.5 19.3-29 2.9-5.8 1.5-9.6-3.9-11.7l-85.8-33.7c-12.7-5-25.4-9.8-38-14.7-12.6-5.1-25.2-10.5-38.1-14.8l-53.8-21.3c-3.8-1.7-7.8-3-11.3-5.1-7.7-4.6-14.5-3.2-18.7 4.7-11.1 20.8-21.1 42.2-31.5 63.3-19.1 38.7-38.7 77.2-63.1 112.9-4.3 6.3-2.9 13.4 3.1 18 4.5 3.4 8.9 6.9 13.3 10.3-6.4 10-12.4 20.2-19.2 29.9-4.3 6.2-5.6 12.2-2.5 19-1.8.6-2.7-.9-3.7-1.8l-29.6-26.2c4-6.6 8.2-13.2 12.1-19.9 29.1-51.1 53.9-104.4 78.5-157.7 22.3-48.1 44-96.5 64.6-145.4 6.1-14.4 14.9-27.7 19.2-42.9 4.3-15.4 6.8-30.8-.5-46 .2-1.1.1-2.4.6-3.4 4.7-9.5 7.2-19.6 8.2-30.1.8-8.6 1.1-17.2-2.7-25.4-11.5-25.3-22.9-50.5-34.3-75.8l-76.6-171-38.9-86.7c-6.8-15.1-13.8-30.2-20.7-45.3-2.8-6.6-5.6-13.3-8.5-19.9 13.7-18.6 27.5-37.2 41.2-55.9 15.7-21.4 18.6-44.8 10.6-69.8.6-1.4 1.1-2.8 1.7-4.1 6.7-14.5 9.4-29.8 6.2-45.5-6.7-33.7-27.6-58-53.8-78.5-5.9-5.1-12-9.9-17.6-15.4-18.7-18.2-37.7-36.1-61.4-47.8zM2827.2-733.4c0-370.4 0-740.8-.1-1111.2 0-3.7.8-4.6 4.6-4.6 149.8.1 299.6.1 449.4.1-5.3 3.5-11.6 5.3-16.3 9.7l-2.2 1.1c-21.9 14.9-39.3 35-59.7 51.7-11.9 8.9-22.4 19.3-31.6 30.9-19.9 25.4-30.4 53.2-20.1 85.7-2.9 6.3-5.4 12.7-6.9 19.5-4.4 20.3-2.5 40 9.3 57.1 16.1 23.6 33.6 46.2 50.6 69.2l-1.7 4.6-11.4 26.2c-.5 1-1.2 2-1.6 3.1l-46.6 103.9c-37.8 84.1-75.5 168.3-113.4 252.4-2.4 5.3-3.3 10.7-3.5 16.4-.3 10.9 2.2 21.4 5 31.8-3.9 8.3-9.1 16.1-9.8 25.7-.6 7.5.1 14.9 1.4 22.3 2.2 12.6 8.4 23.5 13.7 34.9 10 21.4 19 43.2 28.5 64.9 19.5 44.5 39.6 88.7 60.1 132.7 3.8 8.2 8.4 16.1 11.3 24.7-2.4-.1-2.6-2.3-3.4-3.8-6-11.7-12-23.4-17.8-35.2-10.5-21.1-20.9-42.3-31.4-63.5-3.5-7-8.6-9.5-14.7-7.5-24.9 11.2-50.9 19.9-76 30.6-10.4 4-21 7.7-31.1 12.4l-1 .2c-41.2 16.1-82.4 32.1-123.6 48.3-5.5 2.2-6.7 5.6-4.2 11.3 2.7 6.1 6.7 11.4 10.4 17 5.2 7.9 11.9 14.6 16.8 22.7-3.2 1.2-6.6 2.2-9.6 3.7-7.7 3.9-16.6 5.2-23.4 11zM3564-177.5c-244.1 0-488.2 0-732.3.1-3.7 0-4.6-.8-4.6-4.6.1-181.5.1-362.9.1-544.4 2.9 2.7 4 6.6 6.1 9.8 21.9 32.4 48.4 61 74.9 89.5 12.7 13.6 26.1 26.5 39.2 39.6 16.3 16.3 33.3 31.9 51.5 46.1 7.9 6.2 15.8 12.6 25.4 16.2 4.2 1.6 8.3 1.9 12.2-1 22.4-17.1 44.7-34.1 67.1-51.1 11.7-8.9 23.5-17.6 35.3-26.5 1.2 3.2-2 3.6-3.4 4.7-18.7 15.4-37.7 30.4-57.3 44.7-5.4 3.9-5 7.7.8 11.4 11.1 6.9 22.8 12.8 33.5 20.4-12.5 10.2-25.3 19.8-38.2 29.4-6.9 5.1-6.6 8.3.8 12.7l173.6 103.2 70.4 41.9c5.8 3.5 7.9 2.7 10.8-3.3l67-139.5 33-68.9c14.5-30.3 29.1-60.5 43.6-90.7l.7 1.2-6.3 16.2c-28.7 71.8-57.4 143.5-86 215.2-6.9 17.3-6.3 19.7 7.2 31.6-4.9 12-9.8 24.1-14.7 36.2-3.8 9.6-1.7 16.8 6.6 23l75 56.2c36.1 27 72 53.8 108 80.7zM3287.1-1849.1h571.9c-4.6 3.1-5 7.3-3.6 12.3 4.5 16.6 6.5 33.5 6.5 50.7-3.6-1.5-7.1-1.8-10.1 1-2.8 2.6-2.6 6-1.6 9.2 5.8 19.5 6.6 39.6 7.4 59.7-1.1 4.8-4.6 8.3-6.6 12.6-4.3 5.4-8.6 10.9-13 16.3-9.6 11.6-20.4 22.2-30.8 33.2-13.3 13-26.6 26-40.6 38.3-1.9 1.7-2.5 3.8-2.8 6.2-4.5 32.2-9 64.4-13.7 96.5-1 6.7-.7 13.7-4.1 19.9-27 49-53.9 98-80.9 147.1l-36.3 65.9c-3.3 6-2.5 9.1 2.7 13.4l13 10.9c-7 12.7-13.5 25.7-21.2 38l-6.9-5.6c-6.8-5.4-12.7-11.9-19.9-16.7-5.7-5.7-11.8-11-18.3-15.8-4.5-3.5-8-3.9-12-.6-7.9 6.6-15.5 13.4-23.3 20.2l-2.4 1.7c-8.6 7.1-16.5 14.9-25.5 21.4-5.8-12.7-12.9-24.7-19.9-36.8l19.7-16.6c4.8-4 5.8-7.9 2.7-13.5-8.9-16.3-17.8-32.6-26.8-48.9-11.2-20.2-22.6-40.2-33.5-60.5-3.2-5.9-7.5-11.3-9.1-18.1 7.3 1.1 9.6-.1 12.6-6.6l7.2-15.8 79.9-173.4c2-4.5 5.3-8.7 5.3-13.8.1-16.2 0-32.3-.1-48.5 6-9.7 5.2-20.6 5.1-31.4-.1-11.1 0-22.3 0-33.4 0-6 .1-12 0-17.9-.2-6.6-5.1-11-10.6-9.3-17 5.3-30.5 15.6-40.4 30.4-2.2 1.3-3.3 3.7-4.8 5.6-6.7 8.8-14.1 17-20.1 26.3-4.7 5.1-9 10.5-12.8 16.3-15.9 20.2-31.9 40.3-47.8 60.6-1.8 2.3-2.3 5.1-1.9 8.4 2.1 14.3 3.7 28.6 5.5 42.9-2.4 2.9-4.6 6-7.2 8.8-3.1 3.2-3.7 7-3.2 11l5.1 37.8c2.9 21.9 5.7 43.8 8.6 65.8-1.1-.5-1.7-1.6-2.2-2.6-7.3-13.2-14.5-26.5-21.9-39.7-3.4-5.9-6.5-11.8-7-18.8-.4-6.1-1.4-12.2-2.3-18.3-3.6-25.6-7.1-51.2-11-76.7-.8-5.4.2-11.7-4.4-16-9-8.5-18.3-16.9-27.5-25.3-3-3.1-6-6.2-9.1-9.2-16.5-16.4-32.7-33.1-46.6-51.9-7.1-9.6-11.3-19.8-11.6-32.1-.3-11.1-.3-22.2-1-33.3-.5-2.1 1.1-3.6 1.5-5.4 1.1-4.2 3.2-8.4-1.1-12.1 0-17.4 1.9-34.7 6.5-51.5 1.2-5 .9-9.2-3.7-12.3zm373.1 148.9c-7.4-10.2-15.1-20.2-23.2-29.8-9.1-12.1-20.5-21.1-34.6-26.5-8.2-3.1-14.3 1.4-14.3 10.1l-.1 52.3c-3.8 2.1-4.9 5.4-4.9 9.6.1 22 .1 44 0 66 0 2.6.7 4.9 1.7 7.2l38.5 83.8 51.7 112.2c1.9 4.2 4.8 6.6 9.4 6.8 4.7.2 7.8-2.3 9.7-6.4 1.5-3.2 3-6.3 4.4-9.5 3.1-7.1 8.2-13.7 9.3-21.3 4.8-32.4 8.9-65 13.2-97.5.6-4.3 2-8.9-1.1-13-.2-1-.6-2-.5-2.9l6.6-47.2c.8-5.8 0-11-4.2-15.7-4.7-5.1-8.6-11-12.9-16.4l-33.6-42.6c-4.9-6.8-9.7-13.3-15.1-19.2z"/><path class="st1" d="M3850.8-1703.6c2-4.3 5.6-7.8 6.6-12.6 2.8-2.4 3-5.9 3.1-9 .9-20.3 3.4-40.6 1.2-60.9 0-17.2-2-34.1-6.5-50.7-1.3-4.9-1-9.2 3.6-12.3h6c23.7 11.8 42.7 29.6 61.3 47.9 5.6 5.5 11.7 10.3 17.6 15.4 0 60.6 0 121.1.1 181.7 0 2-.9 4.4 1.1 6.1 0 .8-.3 1.5-.8 2.2-6.3 8.6-12.5 17.2-18.9 25.7-1.7 2.3-2.5 4.7-1.3 7.2 4.6 10.3 9.2 20.5 13.9 30.8 2.8 6.6 5.6 13.3 8.5 19.9-4.3.9-2.3 4.3-2.3 6.5-.1 255.3-.1 510.7-.1 766v3.5c-.1 1.8.5 3.3 2.3 4-4.8 8.8-10.3 17.1-17.8 23.8-7 6.3-17.5 9-24.1-3.9-1.6-3.1-2.7-6.4-3.4-9.8-4.5-19.4-4.3-39.1-3.4-58.9 1.1-23.6 1.4-47.2 2.1-70.8l2-66.8c.7-25.9 1.3-51.8 2-77.8l1.2-41.4c.7-26.2 1.4-52.5 2-78.7l1.8-56.5c.5-3.4 2.5-5.6 5.6-7 6.9-3.2 13.7-6.7 20.5-10 6.9-3.3 8-8.1 3.1-13.8-1.3-1.5-2.4-3.1-3.7-4.7-19.7-24.7-39.4-49.4-59.3-74-7.6-9.4-14.5-19.3-22.9-27.9v-385.5c.1-2.6.3-5.3-1.1-7.7zM3287.1-1849.1c4.6 3.1 4.9 7.4 3.6 12.3-4.5 16.9-6.4 34.1-6.5 51.5-.1 5.8-.3 11.6-.4 17.5.7 11.1.7 22.2 1 33.3.3 12.3 4.5 22.5 11.6 32.1 13.9 18.8 30.1 35.5 46.6 51.9 3.1 3 6.1 6.2 9.1 9.2-1.2 1.8-1.1 3.8-1.1 5.8v356.1l-48.4-29.4c-5.4-3.3-7.9-2.9-11.9 1.9l-23.6 28.9c-1.5-2.4-1.1-5.1-1.1-7.8 0-182.2 0-364.4-.1-546.6 0-2.4 1-5-1.2-7.1 4.7-4.4 11-6.3 16.3-9.7 2.1.1 4.1.1 6.1.1z"/><path class="st2" d="M3946.3-732.2c-1.8-.7-2.4-2.1-2.3-4v-3.5c0-255.3 0-510.7.1-766 0-2.2-1.9-5.6 2.3-6.5 6.9 15.1 13.9 30.2 20.7 45.3 13 28.9 26 57.8 38.9 86.7 25.5 57 51 114 76.6 171 11.4 25.3 22.8 50.6 34.3 75.8 3.7 8.2 3.5 16.9 2.7 25.4-1 10.4-3.5 20.6-8.2 30.1-.5 1-.4 2.3-.6 3.4-3.3 3-4.9 7-6.6 10.9-18.8 43.7-38 87.3-57.7 130.6-24 52.9-48.4 105.6-75.4 157.1-7.9 14.9-15.6 29.7-24.8 43.7zM3749.6-367.6c-4.5 1.5-7.8 4.9-11.5 7.6l-113.7 84.1c-2.1 1.6-4.3 3-6.5 4.4v-4.5c0-159.4 0-318.7.1-478.1 0-2.1-1.2-4.7 1.5-6.4 2.7 6.3 5.4 12.5 8 18.8.3.9.5 1.9.9 2.8l69.1 169.7c6.2 15.2 12.5 30.3 19.5 45.1-.1 1-.4 2.2 1.1 2.6v-.1c-.5 3.5 1.5 6.4 2.7 9.4 15.2 37.7 30.6 75.3 45.9 113 3.7 9 1.5 16.6-6 22.5-3.8 3-8.3 5-11.1 9.1z"/><path class="st3" d="M3991.9-683.5l-13.3-10.3c-6-4.6-7.5-11.7-3.1-18 24.4-35.8 44.1-74.2 63.1-112.9 10.4-21.1 20.4-42.5 31.5-63.3 4.2-7.9 11.1-9.4 18.7-4.7 3.5 2.1 7.5 3.4 11.3 5.1-.1 2.3-.2 4.7-.2 7 0 90.4 0 180.8-.1 271.1 0 2.1 1.1 4.8-1.6 6.3-18.4-13.9-36.7-27.8-55.1-41.6-17-13-34.1-25.8-51.2-38.7z"/><path class="st2" d="M4027.9-519.4c-21.2 12.5-42.4 24.9-63.5 37.5l-53.9 32.1c-.4.2-.9.3-1.4.4l-1.1.8-.9.6c0-79.4 0-158.7-.1-238.1 0-1 .1-2 .2-3l29.7 26.5 29.6 26.2c1 .9 1.9 2.4 3.7 1.8h-.2c-.1.8.2 1.1 1 1.1l-.1-.1c-.1.8.4 1 1.1 1.1l-.1-.1c.8 1.8 1.8 3.3 4.1 3 .1 2.7 1.6 3.4 4 3l-.1-.1c-.6 2.6 1.7 3.4 3.1 4.6 21.6 18.3 43.3 36.6 65.9 53.6l19.1 14.4c4.4 3.4 4.2 7.8-.6 10.6-13.1 8.2-26.3 16.1-39.5 24.1z"/><path class="st4" d="M4153.9-611.3c-8.4 7.4-17.4 14.1-27.6 19.1-6 2.9-11.6 3-16.8-2-3.4-3.3-7.5-6-11.2-9 2.7-1.6 1.5-4.2 1.6-6.3l.1-271.1c0-2.3.1-4.7.2-7l53.8 21.3c-.1 84.9-.1 169.9-.1 255z"/><path class="st2" d="M4290.6-749.5c-3.8 2.8-6.3 6.8-9.4 10.3-10 11.3-19.6 23-30 33.8-15.3 15.9-29.8 32.5-45.9 47.7-4.1 3.9-8.3 7.6-12.4 11.4-1.3-2.1-1-4.5-1-6.8v-85.8c0-37.6.1-75.2.1-112.7 12.7 4.9 25.4 9.8 38 14.7 28.6 11.2 57.2 22.4 85.8 33.7 5.5 2.1 6.8 5.9 3.9 11.7-5.2 10.5-12.4 19.6-19.3 29-3.2 4.4-7.3 8.1-9.8 13z"/><path class="st1" d="M4192-851.6c0 37.6-.1 75.2-.1 112.7v85.8c0 2.3-.2 4.7 1 6.8-10.7 11.3-22.6 21.3-34.4 31.3-1.5 1.3-3.1 2.4-4.6 3.6v-255.1c12.9 4.4 25.5 9.8 38.1 14.9z"/><path class="st2" d="M3945.1-1598.1c-2-1.7-1.1-4.1-1.1-6.1-.1-60.6-.1-121.1-.1-181.7 26.2 20.5 47.1 44.7 53.8 78.5 3.1 15.7.5 31-6.2 45.5l-1.7 4.1c-9.3 12.8-18.5 25.6-28.1 38.2-5.5 7.2-10 15.2-16.6 21.5z"/><path class="st3" d="M3031.1-1085.7c-2.8-10.4-5.3-20.9-5-31.8.1-5.7 1.1-11.1 3.5-16.4 37.9-84.1 75.6-168.3 113.4-252.4l46.6-103.9 1.6-3.1c1.6 1.5.9 3.5.9 5.2v735.4c0 1.7.7 3.7-1 5.2-.7-.9-1.5-1.8-2-2.8-22.1-39.4-41.5-80.1-60.7-120.9-23.4-49.8-45.8-100-67.9-150.4-9.5-21.4-18.4-43.2-29.4-64.1z"/><path class="st4" d="M3191.1-747.4c1.7-1.4 1-3.4 1-5.2v-735.4c0-1.7.7-3.7-.9-5.2l11.4-26.2 1.7-4.6c6.8-12.5 11.9-25.8 17.8-38.7 1.3-2.8.2-5.3-1.6-7.7-5.9-8.1-11.7-16.3-17.5-24.5 1.2-1.9 1.2-4.1 1.2-6.3v-179.1c0-2.2-.1-4.3-1.1-6.3 20.4-16.7 37.8-36.7 59.7-51.7.7-.5 1.4-.8 2.2-1.1 2.3 2 1.2 4.7 1.2 7.1l.1 546.6c0 2.6-.3 5.4 1.1 7.8-8.7 11.1-17.3 22.2-26.1 33.1-11 13.8-22.2 27.5-33.3 41.3-4.5 5.6-3.5 9.8 3 13.2 4.7 2.4 9.3 5 14 7.3 2.9 1.4 5.4 3.6 8.9 3.7 2.3 2.1 3.4 4.5 3.7 7.8 1.1 14.9.9 29.9 1.4 44.8.9 24.1 1.4 48.2 2.1 72.3.7 22.3 1.3 44.5 1.9 66.8l2 72.3 2 67.8c.7 23.9 1.3 47.8 2 71.8.6 19.9.5 39.9-5 59.4-.3.4-.6.7-.8 1.1-6.7 14.3-16.8 16.2-27.7 4.7-10.2-11-17.5-23.8-24.4-36.9z"/><path class="st1" d="M3070.2-610.4c-9.8 7.6-19.4 15.5-29.5 22.7-4.8 3.5-10.4 1.6-15.1-1-12.2-6.8-23.2-15.3-33.5-24.7 1.9-1.5 1.1-3.7 1.1-5.6.1-18.2 0-36.3 0-54.5l-.1-186.4c25.2-10.7 51.1-19.3 76-30.6.8 2.7 1 5.5 1 8.3 0 90.7.1 181.2.1 271.8z"/><path class="st2" d="M3070.2-610.4v-271.7c0-2.9-.2-5.6-1-8.3 6.1-2 11.2.5 14.7 7.5 10.5 21.1 20.9 42.3 31.4 63.5 5.8 11.8 11.8 23.5 17.8 35.2.8 1.5 1 3.7 3.4 3.8h-.2c-.3 1-.3 1.9 1 2.1v-.1c-.3 1-.3 1.9 1 2.1v-.1c-.3 1-.3 1.9 1 2.1v-.1c-.3 1-.3 1.9 1 2.1v-.1c-.4 1.3.3 1.9 1.5 2.1.7 1.1 1.4 2.2 1.9 3.4 8.6 19.8 19.7 38.1 31.9 55.8 3.4 4.9 5.4 9.8 4.3 15.7-2 2.9-4.4 5.2-7.2 7.3-6.1 4.5-11.9 9.3-17.9 14l-66.8 50.4c-5.9 4.5-11.9 8.9-17.8 13.3z"/><path class="st3" d="M2961.1-641.2c-19.3-17.1-36.6-36.1-54.3-54.9-15.5-16.5-30.4-33.4-44.8-50.8-.4-.5-1.1-.7-1.7-1-4.8-8.1-11.5-14.9-16.8-22.8-3.7-5.5-7.6-10.9-10.4-17-2.5-5.6-1.3-9.1 4.2-11.3 41.2-16.2 82.4-32.2 123.6-48.3l1-.2c.1 2 .2 4 .2 6v192.9c.1 2.6-.4 5-1 7.4z"/><path class="st4" d="M2961.1-641.2c.6-2.4 1.1-4.8 1.1-7.3-.1-64.3 0-128.6 0-192.9 0-2-.1-4-.2-6 10.1-4.8 20.7-8.4 31.1-12.4l.1 186.4v54.5c0 1.9.8 4.1-1.1 5.6-11.1-8.6-21.2-18.1-31-27.9z"/><path class="st3" d="M3203-1786.5c1.1 2 1.1 4.1 1.1 6.3v179.1c0 2.2 0 4.3-1.2 6.3-7.9-10.6-16.2-21-23.7-31.9-9.7-14.1-22.1-26.5-27.9-43.2-10.3-32.6.2-60.3 20.1-85.7 9.2-11.7 19.6-22.1 31.6-30.9zM3503.9-288.4c-12-7.9-23.1-17-34.6-25.6-25.9-19.3-51.7-38.7-77.5-58-.8-.6-1.7-1-2.6-1.4-13.6-11.9-14.2-14.3-7.2-31.6 28.7-71.8 57.4-143.5 86-215.2l6.3-16.2c2.4-3.7 4-7.6 4.8-12v.1c1.5-.9 1.3-2.5 1.9-3.8 2.4-6.1 4.7-12.3 7.3-18.4 5.3-12.6 9.7-25.7 15.6-38 1.3 1.9 1.2 4.1 1.2 6.3v408.9c-.1 1.5.6 3.5-1.2 4.9zM3240.6-447.5c-9.3-4.1-17.5-9.9-26.2-15-32.6-19.3-65.2-38.8-97.8-58.2-1.3-.7-2.7-1.2-4.1-1.8-10.7-7.6-22.4-13.5-33.5-20.4-5.8-3.6-6.2-7.4-.8-11.4 19.6-14.3 38.6-29.3 57.3-44.7 1.4-1.2 4.5-1.6 3.4-4.7l.1.2c2.5.6 3.8-.4 4-3 2.5.6 3.3-1.2 4-3l-.1.1c.8.1 1.5.2 1.1-1 1.1.4 1.4 0 1.1-1l-.1.1c2.1.4 2.9-.7 3.1-2.5 7.4-5.9 14.7-11.8 22.1-17.6 9.6-8.7 19.8-16.7 28.9-25.8 11.7-9.4 22.5-19.9 33.6-30 1.1-1 1.8-2.4 3.4-2.8.7 2.4 1 4.8 1 7.4v228.4c0 2.1-.3 4.4-.5 6.7z"/><path class="st2" d="M3473.6-637.7c1.8-3.6 2.8-7.6 5.4-10.7-.7 4.3-2.4 8.3-4.8 12-.2-.5-.4-.9-.6-1.3z"/><path class="st3" d="M3644.2-1256c-4.3-3.6-8.6-7.3-13-10.9-5.2-4.3-5.9-7.4-2.7-13.4l36.3-65.9c27-49 54-98 80.9-147.1 3.4-6.2 3.1-13.2 4.1-19.9 4.7-32.2 9.2-64.3 13.7-96.5.3-2.4.9-4.5 2.8-6.2 14-12.3 27.3-25.3 40.6-38.3 1.8 1.8.9 4.1.9 6.2v350.8c0 3.2.2 6.3 1.1 9.3l-46.8 28.9c-20.9 12.9-41.8 25.7-62.8 38.6-5.5 3.4-8 3.2-13-.9-13.9-11.5-28-23.1-42.1-34.7z"/><path class="st2" d="M3351.1-1279.3v-356.1c0-2-.1-4 1.1-5.8 9.2 8.4 18.4 16.7 27.5 25.3 4.6 4.3 3.5 10.6 4.4 16 3.9 25.5 7.4 51.1 11 76.7.9 6.1 1.9 12.1 2.3 18.3.5 7.1 3.6 12.9 7 18.8 7.4 13.2 14.6 26.5 21.9 39.7.6 1 1.1 2.1 2.2 2.6 1 1.9 2 3.7 2.9 5.6 5.1 10.5 10.5 20.8 16.9 30.6 1.6 6.7 5.9 12.1 9.1 18.1 10.9 20.3 22.3 40.3 33.5 60.5 9 16.3 17.9 32.5 26.8 48.9 3.1 5.7 2.1 9.6-2.7 13.5-6.6 5.5-13.2 11-19.7 16.6-11.8 9.6-23.6 19.1-35.2 28.9-4.5 3.8-7.1 4.5-12.3 1.3-17.4-10.6-34.8-21.2-52.1-31.9-15.2-9.2-29.9-18.5-44.6-27.6z"/><path class="st4" d="M3810-1288.5l-.9.6c-1-3-1.1-6.2-1.1-9.3v-350.8c0-2.1.8-4.4-.9-6.2 10.4-10.9 21.2-21.5 30.8-33.2 4.4-5.4 8.7-10.8 13-16.3 1.4 2.4 1.1 5.1 1.1 7.8v385.5c-3.1-1.2-5.7-.3-8.4 1.4-10.8 6.7-21.7 13.2-32.5 19.8-.4.2-.8.5-1.1.7z"/><path class="st2" d="M3719.7-1556.4c-2.7 9.9-4 20.2-4.5 30.3-.9 18.8-9.3 34.6-17.5 50.6-3.3 6.4-13.4 6.3-16.8-.1-3-5.7-5.3-11.7-7.9-17.6 1.4-2.1 1-4.5 1-6.8v-174.6c0-2.3-.3-4.7 1.1-6.8l33.6 42.6c4.3 5.5 8.3 11.3 12.9 16.4 4.3 4.7 5 9.9 4.2 15.7l-6.6 47.2c-.1 1.2.4 2.2.5 3.1zM3623.1-1218.1c7.4 6.6 14.6 13.3 22.3 19.6 4.4 3.6 5.9 7.7 4.7 13.1-9.6 13.6-13.7 28.8-13.9 45.3-.1 9.6-.6 19.3 1.9 28.8.2 2 .2 4 .6 5.9 2.1 11.6 5.7 22.8 9.5 34 2.6 7.7-1.1 12.9-9.1 13.1-2.5 0-5 .1-7.5.2l-36.4-.3v-176.8c0-1.7-.7-3.7 1.2-5.1 7.3 4.9 13.1 11.4 19.9 16.7 2.2 1.8 4.5 3.7 6.8 5.5z"/><path class="st3" d="M3472-1491.2c-2.4 5.4-4.5 11-7.3 16.3-1.7 3.2-4.3 6-8.6 5.7-4.2-.2-6.5-2.6-8.2-6.2-2.3-5.1-4.5-10.4-7.3-15.2-6.3-10.7-8.3-22.4-9.8-34.5-1.7-14.1-3.2-28.2-5.9-42.1-1.8-14.3-3.5-28.6-5.5-42.9-.5-3.3 0-6.1 1.9-8.4 15.9-20.2 31.8-40.4 47.8-60.6 2.3 2 1.9 4.8 1.9 7.4v174.7c.1 2-.7 4.1 1 5.8zM3492.9-1190.4c.8-3.2 2.6-5.5 5-7.7 5.6-5.1 12-9.4 16.9-15.3 9-6.5 16.9-14.4 25.5-21.4.8-.6 1.6-1.2 2.4-1.7 2.1 1.6 1.3 4 1.3 6 .1 57.3.1 114.7.1 172-14 .1-28 .2-42.1.3-7-2.7-9-7-6.5-14 2.3-6.4 4.7-12.7 5.8-19.3 5.7-18.5 8.1-37.4 5.6-56.7-1.5-12.7-5.2-24.7-12.1-35.6-1.2-2-2-4.2-1.9-6.6z"/><path class="st4" d="M3544.1-1058.5c0-57.3 0-114.7-.1-172 0-2 .8-4.4-1.3-6 7.7-6.7 15.4-13.6 23.3-20.2 4-3.3 7.5-2.9 12 .6-.4 2.1-1 4.1-1 6.4.1 63.8.1 127.6.1 191.3-11.1-.1-22-.1-33-.1z"/><path class="st2" d="M3552.9-1665.7l-37.8 81.5c-1.8 3.8-3.5 7.7-6 11.2-1.3-2.1-1.1-4.5-1.1-6.8v-141.4c0-2.1.8-4.4-1.1-6.1 10-14.8 23.4-25.1 40.4-30.4 5.5-1.7 10.4 2.7 10.6 9.3.2 6 0 12 0 17.9 0 11.1-.1 22.3 0 33.4.2 10.8 1 21.6-5 31.4z"/><path class="st3" d="M3634.8-1575.9l-35.2-76c-1-2.3-1.9-4.6-3.1-6.8-6.2-11-10.2-22.6-8.7-35.5 0-17.4 0-34.9.1-52.3 0-8.7 6.1-13.2 14.3-10.1 14.1 5.4 25.6 14.4 34.6 26.5-1.3 2.1-.9 4.5-.9 6.8v140.1c.1 2.5.4 5.1-1.1 7.3z"/><path class="st1" d="M3506.9-1727.3c2 1.7 1.1 4.1 1.1 6.1v141.4c0 2.3-.2 4.7 1.1 6.8-.7 5.9-4.2 10.7-6.5 16-5.9 13.1-12.1 26-18.3 39-2.1-1.7-1.2-4-1.2-6v-164.1c0-2.5.3-5-1.1-7.3 6-9.3 13.4-17.5 20.1-26.3 1.5-1.9 2.6-4.3 4.8-5.6z"/><path class="st4" d="M3634.8-1575.9c1.5-2.2 1.2-4.8 1.2-7.2v-140.1c0-2.3-.4-4.7.9-6.8 8.1 9.7 15.8 19.6 23.2 29.8-2.1 1.7-1.1 4-1.1 6.1-.1 53.3-.1 106.6 0 159.9 0 2.9-.2 5.6-1.2 8.3-8.1-16.5-15.6-33.2-23-50z"/><path class="st1" d="M3577-1058.5c0-63.8 0-127.6-.1-191.3 0-2.2.5-4.3 1-6.4 6.5 4.8 12.6 10.1 18.3 15.8-1.9 1.3-1.2 3.3-1.2 5.1v176.8h-18zM3657.9-1525.9c.9-2.7 1.2-5.5 1.2-8.3v-159.9c0-2-.9-4.4 1.1-6.1 5.4 6 10.2 12.4 14.9 19-1.4 2.1-1.1 4.5-1.1 6.8v174.6c0 2.3.4 4.7-1 6.8-5.5-10.9-10.5-21.8-15.1-32.9z"/><path class="st4" d="M3482-1695.4c1.4 2.3 1.1 4.8 1.1 7.3v164.1c0 2-.9 4.4 1.2 6-3.7 9.1-7.9 18-12.3 26.8-1.7-1.7-.9-3.8-.9-5.7v-174.7c0-2.6.4-5.4-1.9-7.4 3.7-5.9 8.1-11.3 12.8-16.4z"/><path class="st0" d="M3631.5-1058.2l7.5-.2c8-.1 11.7-5.4 9.1-13.1-3.8-11.2-7.5-22.4-9.5-34-.3-1.9-.4-3.9-.6-5.9 1.6-2.9 3-5.8 4.7-8.6 4.5-7.7 4.1-10.9-2.4-16.7-1.3-1.2-2.8-2.3-4.1-3.4.1-16.5 4.3-31.7 13.9-45.3 10.9 9.1 21.9 18.1 32.7 27.3 3.5 2.9 6.9 2.9 10.5.8l110.3-67.9c12-7.4 23.9-14.8 35.9-22.1 4.3-2.6 7.6-1.8 11.1 2.6l56.8 71.1c.3.4.9.5 1.3.7l-1.8 56.5c-3.3 1.8-3.4 5.1-3.4 8.2-.5 20.9-.9 41.8-1.5 62.8-.6 23.4-1.3 46.8-2 70.2l-2 69.7-2 70.2-2 69.2-2.1 62.7c-7.7-7.3-16-13.9-23-21.9 0-17.5 0-35.1-.1-52.6 4.3-1 4.3-4.3 4.3-7.8 0-53.1-.1-106.2 0-159.2 0-9-4-14.8-12-18.2-3.8-1.6-7.7-2.9-11.6-4.4-14.1-5.3-28-11.3-42.4-16-10.2-4.3-20.5-8.5-31.1-11.8-8.8-4.1-17.9-7.4-27.1-10.6-16.4-6.3-32.8-12.7-49.2-18.9-9.5-3.6-14.6.7-12.7 10.8 1.8 9.9 3.9 19.8 5.5 29.8 1.1 7.2 3.7 14.1 3.1 21.5-3.7-1.7-7.7-3-11.2 0-3.5 2.9-2.8 6.9-2.1 11 3.7 20.2 7.2 40.4 10.8 60.7l-4.2 6.1c-5.9 9-11.1 18.3-17.7 26.8l-7.2-33.1c1.8-2.6 3.4-5.3 5.3-7.8 5.5-7.4 7.9-15.4 5.9-24.7-5.1-23.3-9.9-46.6-14.8-69.9-.5-2.4-1.1-4.9-1.4-7.3-1.8-12.8-8.7-21.1-21-25.1-3-10.8-5-21.4-6.5-32.2z"/><path class="st4" d="M3503.9-708.7l10-26.5 11.1-28.2c3.1-7.6 6.4-15.2 9.4-22.8 1.3-3.3 3.2-5.3 6.9-5.2l34.8.2v544.9c0 1.7-.6 3.7 1.3 5-4.8 2.1-9.4 1.7-13.5-1.4-19.6-14.7-39.1-29.5-58.6-44.3-.5-.4-.9-.9-1.4-1.4 1.8-1.4 1.1-3.4 1.1-5.1v-408.9c.1-2.2.2-4.3-1.1-6.3z"/><path class="st1" d="M3577.3-241.3c-1.9-1.3-1.3-3.3-1.3-5v-544.9c8.5-.1 17 .1 25.4-.2 4.2-.2 6.3 1.7 7.8 5.3 2.1 5 3.4 10.4 6.5 14.9.4 3.9 2.6 7.2 3.7 10.8-2.7 1.6-1.5 4.2-1.5 6.4-.1 159.4-.1 318.7-.1 478.1v4.5c-13 10.5-26.6 20.4-40.5 30.1z"/><path class="st0" d="M3203.2-657.4c-9.2 9.1-19.3 17.1-28.9 25.8 2.1-7.1.1-12.9-4.2-18.8-5.6-7.5-10.2-15.8-15.2-23.7 5.9-4.7 11.8-9.5 17.9-14 2.8-2.1 5.2-4.5 7.2-7.3 7.3 12.9 14.6 25.9 23.2 38zM3143-606.5c-.2 2.5-1.4 3.6-4 3 .9-1.7 2.2-2.8 4-3zM3147.1-609.6c-.7 1.8-1.5 3.6-4 3 .8-1.6 2.1-2.7 4-3zM3152.2-614c-.2 1.8-1 2.9-3.1 2.5.6-1.3 1.9-1.8 3.1-2.5zM3149.1-611.5c.3 1.1 0 1.5-1.1 1 .1-.6.4-1 1.1-1zM3148.1-610.5c.5 1.2-.2 1.2-1.1 1-.1-.8.5-.9 1.1-1zM3619.6-760.4c-1.1-3.7-3.3-6.9-3.7-10.8l10.4-14.1c5.1 8.9 9 18.4 13.5 27.6-4.1 5.4-8.2 10.7-12.2 16.1-2.7-6.3-5.4-12.5-8-18.8zM3717-524c1 .6 1.3 1.5 1.1 2.6-1.4-.5-1.1-1.6-1.1-2.6z"/><path class="st3" d="M3639.8-757.7c-4.5-9.2-8.4-18.7-13.5-27.6-2.5-5.2-.8-9.2 2.6-13.5 7.4-9.3 14.6-18.9 21.4-28.7 7.1-10.2 14.9-19.9 20.9-30.9 6.6-8.5 11.9-17.8 17.7-26.8 1.4-2.1 2.8-4.1 4.2-6.1 3.5-.8 6 .7 8.4 3.1 8.6 8.8 17.4 17.4 26.1 26.2 6.5 6.6 12.7 13.7 19.5 20 12.7 11.7 24.7 24.2 37 36.4-1.3 2.3-1 4.8-1 7.3v328.6c0 2.5.4 5-1 7.3-6.6-13.5-13.4-27-19.9-40.6-11.1-23-22-46.1-33-69.1-26.6-55.5-53.1-111-79.7-166.4-3.3-6.5-6.5-12.8-9.7-19.2z"/><path class="st1" d="M3868.8-725.4c7 8 15.3 14.6 23 21.9 5.1 4.8 10.2 9.6 15.4 14.4-.1 1-.2 2-.2 3 0 79.4 0 158.7.1 238.1-14.9 8.9-29.9 17.9-44.9 26.8l-37.2 21.8c-1.8-1.8-1-4.1-1-6.2v-238.7c0-40.8 0-81.6.1-122.4 5.8 4.2 10.3 9.8 15.6 14.5 9.8 8.7 18.7 18.6 29.1 26.8z"/><path class="st4" d="M3824.1-766.7l-.1 122.4v238.7c0 2.1-.8 4.4 1 6.2-1.2.8-2.4 1.7-3.7 2.5-4.8 2.9-7.1 2.3-9.5-2.6-9-18.5-17.9-37-26.8-55.6-1.1-2.4-2.1-4.9-3.1-7.3 1.4-2.3 1-4.8 1-7.3v-328.6c0-2.5-.3-5 1-7.3 13.6 12.8 27.2 25.5 40.2 38.9z"/><path class="st1" d="M3907.9-448.7l1.1-.8c-.4.3-.7.6-1.1.8z"/><path class="st0" d="M3976-629.5c1.9.3 3.1 1.4 4 3-2.4.4-3.9-.4-4-3zM3971.9-632.5c1.9.2 3.1 1.4 4.1 3-2.3.3-3.3-1.2-4.1-3zM3970-634.5c.8-.1.9.5 1 1.1-.8 0-1.1-.4-1-1.1zM3971-633.5c.7 0 1 .4 1.1 1.1-.7-.1-1.2-.3-1.1-1.1zM3492.9-1190.4c-.2 2.4.6 4.5 1.9 6.5 6.9 10.9 10.6 22.9 12.1 35.6l-15.4 13.1c-4 3.4-4.7 8.4-1.8 12.9 6 9.4 9.5 19.8 11.5 30.7-1.2 6.7-3.6 13-5.8 19.3-2.5 7-.4 11.3 6.5 14-1.2 12.4-4 24.5-7.5 36.4-4.6 5.8-8.4 11.9-9.9 19.6-4.8 23.9-10.1 47.7-15.4 71.5-2.1 9.5-2.5 18.8 2.7 27.5l-6.9 30-10-15.2c-2.3-3.6-5.1-3.7-8.4-1.6l-3.3 2.1 10.9-61.1c.7-4.2 1-8.4-4.1-10.4.8-9.1 3.1-17.9 4.5-26.9 1.4-9.1 4-18.1 4.5-27.4.3-6.4-4.3-9.8-10.3-7.7-6.6 2.2-13.1 4.6-19.6 7.1-13.4 5.2-26.8 10.5-40.1 15.8-7.2 2.1-14.2 4.9-21 8.1-11.5 3.9-23 8-34.1 13-16.4 6.2-32.9 12.2-49.2 18.5-8.1 3.1-12.1 9.4-12.1 18.1.1 13.1 0 26.2 0 39.4 0 3.3.5 6.6-.5 9.9-2.8 2.5-3.4 6.1-4.5 9.4-1.1 1.7-.5 3.6-.5 5.3 0 50.8-.2 101.6.1 152.4 0 6.4-1.4 10.9-6.4 14.9-5.3 4.2-10.1 9.1-15.6 14.1-.2-4.9-.4-8.7-.6-12.4-1.2-2.8-.2-5.8-.7-8.7 5.5-19.5 5.7-39.4 5-59.4-.8-23.9-1.3-47.9-2-71.8l-2-67.8-2-72.3c-.7-22.3-1.3-44.5-1.9-66.8-.7-24.1-1.2-48.2-2.1-72.3-.5-14.9-.3-29.9-1.4-44.8-.2-3.3-1.4-5.7-3.7-7.8 11.5-14.6 23-29.1 34.6-43.6 5.9-7.4 11.8-14.7 17.8-22 3.6-4.5 6.6-5 11.5-2l46.5 28.6c32.7 20.1 65.4 40.2 98 60.3 4.3 2.7 8 2.8 12.2-.7 11.3-9.6 22.8-19 34.3-28.4 1.3-.9 2.8-1.9 4.2-3zM3140.2-772.5c1.2.2 1 1.4 1.5 2.1-1.2-.2-1.8-.8-1.5-2.1zM3139.2-774.5c1.2.3 1.1 1.2 1 2.1-1.2-.2-1.3-1.1-1-2.1zM3138.2-776.5c1.2.3 1.1 1.2 1 2.1-1.2-.2-1.3-1.1-1-2.1zM3137.2-778.5c1.2.3 1.1 1.2 1 2.1-1.2-.2-1.3-1.1-1-2.1zM3136.2-780.5c1.2.3 1.1 1.2 1 2.1-1.2-.2-1.3-1.1-1-2.1z"/><path class="st4" d="M3244.7-707.7c.2 3.8.4 7.6.6 12.4 5.5-5 10.3-9.9 15.6-14.1 5-4 6.4-8.5 6.4-14.9-.3-50.8-.2-101.6-.1-152.4 0-1.8-.6-3.7.5-5.3.1 1.8.2 3.6.2 5.5v160.2c6.2-4.7 10.3-10.4 16.1-14.2 1.2 2 1.1 4.1 1.1 6.3v295.4c0 2.3 1.1 5.1-1.7 6.8-14.6-7.8-28.9-16.3-42.7-25.5.2-2.3.4-4.6.4-7v-228.4c0-2.5-.2-5-1-7.4 3.9-2.4 4.5-6 4.2-10.2-.1-2.3-.5-4.8.4-7.2z"/><path class="st2" d="M3479-648.4c0-1.6 1-2.7 1.9-3.8-.6 1.2-.5 2.9-1.9 3.8zM3443.4-888l3.3-2.1c3.3-2.1 6.1-1.9 8.4 1.6l10 15.2c5.6 8.7 11 17.7 17 26.2 11.9 17 23.8 34 36.8 50.2 3 3.7 3.2 7.2 1 11.4-1.9 3.4-4.2 6.8-4.7 10.8-5.4 7.8-8.8 16.6-12.3 25.3-6.4 10.5-10.9 21.9-16.3 32.8-11.2 22.7-21.9 45.7-32.9 68.6l-27 56.4c-12.6 26.2-25.2 52.5-37.9 78.7l-22.8 47.3c-3.2-1.3-1.7-4-1.7-6.1-.1-108.7-.1-217.4 0-326.1 0-3-.1-6-1.1-8.8.9-1 1.7-2 2.7-2.9 24.7-24.6 50-48.6 74.1-73.9 1.1-1.4 2.8-2.5 3.4-4.6z"/><path class="st1" d="M3363-806.5c1 2.9 1.1 5.8 1.1 8.8v326.1c0 2-1.5 4.8 1.7 6.1-10.6 22.1-21.1 44.1-31.6 66.3-1.8 3.7-4.6 5.2-8 3.1-14.3-8.7-29-16.5-42.8-25.9 2.7-1.7 1.7-4.5 1.7-6.8.1-85.3 0-170.6 0-255.9v-39.5c0-2.2.1-4.3-1.1-6.3 1-1.1 1.9-2.3 3-3.3l45-43.1c10.4-9.9 20.7-19.8 31-29.6z"/><path class="st0" d="M3502.8-749.4c3.5-8.7 6.9-17.5 12.3-25.3 3.6 3.6 5.4 8.7 9.9 11.4l-11.1 28.2c-3.7-4.8-7.4-9.6-11.1-14.3z"/><path class="st3" d="M3810-1288.5l1.1-.8c-.4.3-.8.6-1.1.8z"/><path class="st2" d="M3600.1-1026.1c12.6-.1 25.2-.2 37.9-.2 12.3 4 19.2 12.3 21 25.1.3 2.5.9 4.9 1.4 7.3 4.9 23.3 9.7 46.7 14.8 69.9 2 9.3-.4 17.3-5.9 24.7-1.9 2.5-3.5 5.2-5.3 7.8-3.9 4.9-8.1 9.5-11.6 14.6-10.8 16.2-22.9 31.6-34.4 47.3-4 5.5-9.6 9.1-16.8 9.3-1.8-1.4-1.2-3.3-1.2-5.1 0-66.9 0-133.8.1-200.7zM3807.1-983.6c14.4 4.7 28.2 10.6 42.4 16 3.9 1.5 7.8 2.8 11.6 4.4 8 3.4 12 9.2 12 18.2-.1 53.1-.1 106.2 0 159.2 0 3.5 0 6.8-4.3 7.8-2.6.4-4.4-.8-6.2-2.4-3.7-3.3-7.5-6.4-11.3-9.6l-45.5-39c1.4-2.1 1.2-4.4 1.2-6.8v-85.9l.1-61.9z"/><path class="st3" d="M3747.9-878.2c-8-5.4-14.7-12.3-22.2-18.2-4.4-3.5-8.5-7.3-12.9-10.9-8-6.4-9.2-15.6-10.8-24.8-1.6-9.3-3.4-18.5-4.9-27.8-.2-1.3-.8-2.1-1.5-2.9.6-7.4-1.9-14.4-3.1-21.5-1.5-10-3.7-19.9-5.5-29.8-1.8-10.1 3.2-14.4 12.7-10.8 16.4 6.2 32.8 12.6 49.2 18.9 0 40.9 0 81.7.1 122.6 0 1.8-.1 3.6-1.1 5.2z"/><path class="st1" d="M3805.8-829.1c-10.7-8.3-20.9-17.2-31-26.2 2-1.7 1.1-4 1.1-6.1.1-44.7.1-89.4.1-134.1 10.6 3.3 20.9 7.5 31.1 11.8l-.2 61.9v85.9c.1 2.4.2 4.8-1.1 6.8z"/><path class="st4" d="M3776-995.4c0 44.7 0 89.4-.1 134.1 0 2 .9 4.4-1.1 6.1-9.3-7.2-18.3-14.8-26.9-22.9 1-1.6 1.1-3.4 1.1-5.3l-.1-122.6c9.2 3.2 18.3 6.5 27.1 10.6z"/><path class="st3" d="M3541-820.3c-7.7-.9-12.8-5.5-17.1-11.5-16.8-23.4-33.7-46.8-50.6-70.2-.4-.5-.9-.8-1.4-1.3-5.3-8.7-4.9-18-2.7-27.5 5.3-23.8 10.6-47.6 15.4-71.5 1.5-7.7 5.3-13.7 9.9-19.6.2 0 .4.2.5.1 14.7-7.8 30.6-3.6 46.1-4.4-.1 68.7-.1 137.3-.1 205.9zM3272.2-891.5c1-3.3.5-6.6.5-9.9.1-13.1.1-26.2 0-39.4 0-8.8 3.9-15 12.1-18.1 16.4-6.3 32.8-12.4 49.2-18.5 2.5 1.9 2.1 4.7 2.1 7.3v148.9c-.8.8-1.5 1.7-2.4 2.5l-49.8 42c-2.3 2-4.5 3.9-7.9 2.4-3.6-1.6-3.2-4.6-3.2-7.6v-103.8c.1-1.9.7-4-.6-5.8z"/><path class="st2" d="M3450.1-959.5c-2.5 13.3-5.2 26.6-7.5 39.9-1.2 6.8-4.4 12.3-9.5 16.7-14 11.9-28.1 23.6-42.1 35.4-3.2-.9-1.8-3.6-1.8-5.4-.1-41.9-.1-83.7-.1-125.6 13.4-5.3 26.7-10.6 40.1-15.7 6.5-2.5 13-4.9 19.6-7.1 6.1-2.1 10.7 1.2 10.3 7.7-.5 9.3-3.1 18.2-4.5 27.4-1.4 8.9-3.7 17.7-4.5 26.7z"/><path class="st4" d="M3369.1-849.2c-10.6 9.8-21.7 19-33 28v-148.9c0-2.6.4-5.4-2.1-7.3 11.1-4.9 22.6-9.1 34.1-13v134.4c0 2.4-.3 4.7 1 6.8z"/><path class="st1" d="M3369.1-849.2c-1.3-2.1-1.1-4.5-1.1-6.8v-134.4c6.8-3.1 13.8-5.9 21-8.1 0 41.9 0 83.7.1 125.6 0 1.9-1.4 4.5 1.8 5.4-7.2 6.2-14.5 12.3-21.8 18.3zM3601.2-820.2c-.9 1-2.1.9-3.2.9l-37.9-.2v-206.6h40v200.8c0 1.7-.7 3.7 1.1 5.1z"/><path class="st4" d="M3560.1-1026.1v206.6c-6.4.1-12.7 1-19-.8v-205.8h19z"/><path class="st5" d="M270.9 212.4c.3-1.4-.1-2.5-1.3-3.5-2-1.7-16.2-14.1-18-15.4-1.2-.9-2.1-1-3.2-.2-2.1 1.8-16.6 14.3-18.1 15.6-.7.6-1.1 1.2-1.3 2.1 0 .6.2 1.2.5 1.7 1.8 2.9 2.8 6.1 3.2 9.5.6 5.2 0 10.2-1.5 15.1-.3 1.8-1 3.5-1.6 5.2-.7 1.9-.1 3 1.7 3.7h36.5c2.1 0 3.1-1.4 2.4-3.5-1-3-2-6-2.5-9.1l-.2-1.6c-.7-2.5-.5-5.1-.5-7.7.2-4.2 1.3-8.2 3.9-11.9zM301.6 422c-4.1-10-41.4-101.8-41.9-103.1-.4-1-1-1.5-2.1-1.4-2.3.1-13 0-16.1 0-1 0-1.5.5-1.8 1.4-.8 2-33 82.5-40.6 101.6-1.8 4.6-1.7 5.2 1.9 8.4.2.1.5.2.7.4 6.9 5.2 40.7 30.6 45.9 34.5 1.1.8 2.3.9 3.6.4 3.7-2.6 47.9-35.3 48.9-36.1 1.9-1.6 2.5-3.7 1.5-6.1zM451.4 314.3c-7.6-3-15.2-6-22.9-9-3.4-1.3-6.8-2.6-10.1-3.9-3.4-1.4-6.7-2.8-10.2-4l-14.4-5.7c-1-.4-2.1-.8-3-1.4-2-1.2-3.9-.8-5 1.3-2.9 5.6-5.6 11.2-8.4 16.9-5.1 10.3-10.3 20.6-16.8 30.1-1.2 1.7-.8 3.6.8 4.8 1.2.9 2.4 1.8 3.6 2.8l13.7 10.3c4.9 3.7 16.8 12.6 17.7 13.5 1.4 1.3 2.9 1.3 4.5.5 2.7-1.3 5.1-3.1 7.4-5.1.4-.3.8-.6 1.2-1 3.2-2.7 6.3-5.3 9.2-8.4l3.3-3c4.3-4 8.2-8.5 12.2-12.7 2.8-2.9 5.3-6 8-9 .8-.9 1.5-2 2.5-2.7.7-1.3 1.8-2.3 2.6-3.5 1.8-2.5 3.8-4.9 5.2-7.7.7-1.5.4-2.5-1.1-3.1zM293 96c-1.2-1.4-2.3-2.9-3.4-4.4-3-3.8-11.5-14.8-12.9-16.4-2-2.7-4-5.4-6.2-8-2.4-3.2-5.5-5.6-9.2-7.1-2.2-.8-3.8.4-3.8 2.7v13.9c-.4 3.4.6 6.5 2.3 9.5.3.6 7.1 15.3 10.2 22.1 2 4.5 4 8.9 6.1 13.3 1.2 3 2.6 5.9 4 8.7.7 1.6 1.3 3.2 2.1 4.7.9 1.7 3.6 1.7 4.5 0 2.2-4.3 6.9-30.7 7.5-34.9.2-1.4 0-2.8-1.2-4.1zM385.4 380.8c-1.7-1.3-3.4-2.6-5.1-3.8-6-4.5-27.3-22.8-29.9-25.1-2.6-2.4-10.6-9.6-12-10.9-2-1.9-4.3-3.7-6.1-5.8-2.8-2.2-29.1-27.9-32.5-31.1l-5.2-5.3c-2.3-2.3-4.7-4.6-7-7-.6-.7-1.3-1-2.2-.8-.4.5-.8 1.1-1.1 1.6-1.6 2.4-3 4.9-4.7 7.1-1.6 2.9-3.7 5.5-5.6 8.2-1.8 2.6-3.7 5.2-5.7 7.6-.9 1.1-1.4 2.2-.7 3.6 1.4 2.4 2.4 4.9 3.6 7.3l2.5 5.1 21.3 44.4 8.8 18.4c1.7 3.6 10.9 22.6 13.3 27.6.6 1.3 1.3 1.4 2.5.7.3-.2.6-.4 1-.7l9.9-5.8c4-2.4 22.4-13.3 27.2-16.2l16.9-10c3.5-2.1 7-4.3 10.6-6.4 1.3-.7 1.4-1.8.2-2.7zM398.4 226.3c-3.1-6.7-6.1-13.5-9.1-20.2l-20.4-45.6-10.4-23.1-5.5-12.1-2.3-5.3-3.7-8.2c-.3-.7-.1-1.3.4-1.9 1.7-2.3 8.2-11.3 9.7-13.2 2.6-3.4 7.8-10.9 7.9-11.3 1.8-3.9 2.5-7.9 1.7-12.1-1.8-9-7.4-15.5-14.3-20.9-1.6-1.3-3.2-2.6-4.7-4.1-5-4.9-10-9.6-16.3-12.8h-1.6c-1.2.8-1.3 2-1 3.3 1.2 4.4 1.7 8.9 1.7 13.5.6 5.4-.1 10.8-.3 16.2 0 .8-.3 1.6-.8 2.4-.7 1.1-4.1 6.3-5.2 7.7-2.6 3.1-5.4 5.9-8.2 8.8-3.5 3.5-7.1 6.9-10.8 10.2-.5.4-.7 1-.7 1.6-1.2 8.6-2.4 17.2-3.7 25.7-.3 1.8-.2 3.7-1.1 5.3l-21.6 39.2-9.7 17.6c-.9 1.6-.7 2.4.7 3.6l3.5 2.9 11.3 9.3c1.3 1.1 2 1.1 3.5.2 5.6-3.4 11.2-6.9 16.7-10.3 4.2-2.6 18.8-11.6 21.7-13.3.7-.4 1.4-.7 2.2-.4 2.2 2.3 4.1 5 6.1 7.5 5.3 6.6 16.4 20.6 16.8 21 1.3 1.5 1 2.8-.8 3.7-1.8.9-3.6 1.8-5.5 2.7-.8.4-1.4 1-1.5 1.9-.2 5-.3 10-.5 15.1-.2 7-.4 14-.5 21-.1 3.7-.2 7.4-.3 11l-.5 20.7c-.2 5.9-.4 11.9-.5 17.8-.2 6.3-.3 12.6-.6 18.9-.3 5.3-.3 10.5.9 15.7.2.9.5 1.8.9 2.6 1.8 3.4 4.6 2.7 6.4 1 2-1.8 3.4-4 4.7-6.3-.1 0-.2-.1-.3-.2l.3.2c2.5-3.7 4.5-7.7 6.6-11.6 7.2-13.7 13.7-27.8 20.1-41.9 5.2-11.6 10.4-23.2 15.4-34.8.4-1 .9-2.1 1.8-2.9.1-.3 0-.6.2-.9 1.2-2.5 1.9-5.2 2.2-8-.1-2.4 0-4.7-1-6.9zM47.5 317.5c1.4 2.8 3.3 5.2 5.2 7.7.9 1.2 1.9 2.2 2.6 3.5 1 .7 1.7 1.8 2.5 2.7 2.7 3 5.2 6.1 8 9 4.1 4.2 7.9 8.7 12.2 12.7l3.3 3c2.8 3 6 5.7 9.2 8.4.4.3.8.6 1.2 1 2.3 2 4.6 3.8 7.4 5.1 1.6.8 3.1.8 4.5-.5.9-.9 12.8-9.8 17.7-13.5l13.7-10.3c1.2-.9 2.4-1.8 3.6-2.8 1.6-1.2 2-3.1.8-4.8-6.5-9.5-11.7-19.8-16.8-30.1-2.8-5.6-5.4-11.3-8.4-16.9-1.1-2.1-2.9-2.5-5-1.3-.9.6-2 .9-3 1.4l-14.4 5.7c-3.4 1.2-6.8 2.6-10.2 4-3.4 1.3-6.8 2.6-10.1 3.9-7.6 3-15.2 6-22.9 9-1.5.5-1.8 1.5-1.1 3.1zM207 96c1.2-1.4 2.3-2.9 3.4-4.4 3-3.8 11.5-14.8 12.9-16.4 2-2.7 4-5.4 6.2-8 2.4-3.2 5.5-5.6 9.2-7.1 2.2-.8 3.8.4 3.8 2.7v13.9c.4 3.4-.6 6.5-2.3 9.5-.3.6-7.1 15.3-10.2 22.1-2 4.5-4 8.9-6.1 13.3-1.2 3-2.6 5.9-4 8.7-.7 1.6-1.3 3.2-2.1 4.7-.9 1.7-3.6 1.7-4.5 0-2.2-4.3-6.9-30.7-7.5-34.9-.2-1.4 0-2.8 1.2-4.1zM114.6 380.8c1.7-1.3 3.4-2.6 5.1-3.8 6-4.5 27.3-22.8 29.9-25.1 2.6-2.4 10.6-9.6 12-10.9 2-1.9 4.3-3.7 6.1-5.8 2.8-2.2 29.1-27.9 32.5-31.1l5.2-5.3c2.3-2.3 4.7-4.6 7-7 .6-.7 1.3-1 2.2-.8.4.5.8 1.1 1.1 1.6 1.6 2.4 3 4.9 4.7 7.1 1.6 2.9 3.7 5.5 5.6 8.2 1.8 2.6 3.7 5.2 5.7 7.6.9 1.1 1.4 2.2.7 3.6-1.4 2.4-2.4 4.9-3.6 7.3l-2.5 5.1-21.3 44.4-8.8 18.4c-1.7 3.6-10.9 22.6-13.3 27.6-.6 1.3-1.3 1.4-2.5.7-.3-.2-.6-.4-1-.7l-9.9-5.8c-4-2.4-22.4-13.3-27.2-16.2l-16.9-10c-3.5-2.1-7-4.3-10.6-6.4-1.3-.7-1.4-1.8-.2-2.7zM100.9 233.1c.3 2.8.9 5.5 2.2 8l.2.9c.9.8 1.3 1.9 1.8 2.9 5 11.7 10.1 23.3 15.4 34.8 6.4 14.1 12.9 28.2 20.1 41.9 2.1 3.9 4.1 7.9 6.6 11.6.1 0 .2-.1.3-.2l-.3.2c1.3 2.3 2.7 4.6 4.7 6.3 1.9 1.7 4.7 2.4 6.4-1 .4-.8.7-1.7.9-2.6 1.2-5.2 1.2-10.4.9-15.7-.3-6.3-.4-12.6-.6-18.9-.2-5.9-.4-11.9-.5-17.8-.2-6.9-.4-13.8-.5-20.7-.1-3.7-.2-7.4-.3-11-.2-7-.4-14-.5-21-.2-5-.3-10-.5-15.1-.1-.9-.7-1.5-1.5-1.9-1.8-.9-3.6-1.8-5.5-2.7-1.8-.9-2.1-2.2-.8-3.7.3-.4 11.5-14.4 16.8-21 2-2.5 3.9-5.1 6.1-7.5.8-.3 1.5-.1 2.2.4 2.9 1.8 17.5 10.8 21.7 13.3 5.6 3.4 11.2 6.9 16.7 10.3 1.5.9 2.1.9 3.5-.2l11.3-9.3c1.2-1 2.3-2 3.5-2.9 1.4-1.1 1.6-2 .7-3.6-3.2-5.9-6.4-11.7-9.7-17.6l-21.6-39.2c-.9-1.6-.8-3.5-1.1-5.3-1.3-8.6-2.5-17.2-3.7-25.7-.1-.6-.2-1.2-.7-1.6-3.7-3.3-7.3-6.7-10.8-10.2-2.8-2.9-5.6-5.7-8.2-8.8-1.2-1.4-4.6-6.6-5.2-7.7-.5-.8-.8-1.6-.8-2.4-.2-5.4-.9-10.8-.3-16.2 0-4.6.5-9.1 1.7-13.5.4-1.3.3-2.4-1-3.3h-1.6c-6.3 3.1-11.4 7.9-16.3 12.8-1.5 1.5-3.1 2.7-4.7 4.1-7 5.5-12.6 11.9-14.3 20.9-.8 4.2-.1 8.3 1.7 12.1.2.4 5.4 7.9 7.9 11.3 1.5 1.9 8 10.9 9.7 13.2.5.6.7 1.2.4 1.9l-3.7 8.2-2.3 5.3c-1.8 4-3.7 8-5.5 12.1l-10.4 23.1-20.4 45.6-9.1 20.2c-1.3 2.3-1.2 4.6-1 6.9zM333.4 276.5c0-2.4-1.1-4-3.2-4.8-1-.4-38.6-14.8-43-16.5-2.5-1-3.9.2-3.4 2.9l1.5 8c.3 1.9 1 3.8.8 5.7.2.2.4.4.4.8l1.3 7.4c.4 2.4.7 4.9 2.9 6.6 1.2.9 38.9 32.9 39.9 33.8.5.4 1 .8 1.7.6 1.1-.3 1.2-1.1 1.2-2.1-.1-14.1-.1-28.2-.1-42.4zM166.5 276.5c0-2.4 1.1-4 3.2-4.8 1-.4 38.6-14.8 43-16.5 2.5-1 3.9.2 3.4 2.9l-1.5 8c-.3 1.9-1 3.8-.8 5.7-.2.2-.4.4-.4.8l-1.3 7.4c-.4 2.4-.7 4.9-2.9 6.6-1.2.9-38.9 32.9-39.9 33.8-.5.4-1 .8-1.7.6-1.1-.3-1.2-1.1-1.2-2.1.1-14.1.2-28.2.1-42.4zM277.6 282.1l-4-18.6c-.1-.6-.2-1.3-.4-1.9-.7-3.6-2.1-6.3-5.6-6.7-3.4 0-24.1.1-25.8.1-4.1.2-10.5-.3-12.3 1.2-.8.7-2.4 3.1-2.8 5.2-1.3 6.4-2.7 12.7-4.1 19.1-.6 2.5-.7 5 .7 7.3l.4.3 13.5 18.7c1.1 1.6 2.5 2.8 4.6 3.1 1.7.5 3.4.2 5.1.2 3.4 0 6.7 0 10.1.1.3 0 .6 0 .9-.2 1.9-.1 3.4-1 4.5-2.5 3.1-4.2 13.2-17.9 13.7-18.6 1.3-2.2 2-4.3 1.5-6.8z"/><linearGradient id="SVGID_1_" gradientUnits="userSpaceOnUse" x1="229.011" y1="205.964" x2="270.989" y2="205.964"><stop offset="0" stop-color="#BD924D"/><stop offset="1" stop-color="#EBDF91"/></linearGradient><path class="st6" d="M270.9 198.8c.3-1.4-.1-2.5-1.3-3.5-2-1.7-16.2-14.1-18-15.4-1.2-.9-2.1-1-3.2-.2-2.1 1.8-16.6 14.3-18.1 15.6-.7.6-1.1 1.2-1.3 2.1 0 .6.2 1.2.5 1.7 1.8 2.9 2.8 6.1 3.2 9.5.6 5.2 0 10.2-1.5 15.1-.3 1.8-1 3.5-1.6 5.2-.7 1.9-.1 3 1.7 3.7h36.5c2.1 0 3.1-1.4 2.4-3.5-1-3-2-6-2.5-9.1l-.2-1.6c-.7-2.5-.5-5.1-.5-7.7.2-4.2 1.3-8.3 3.9-11.9z"/><linearGradient id="SVGID_00000090255948487671132050000017940315145751482758_" gradientUnits="userSpaceOnUse" x1="197.902" y1="377.337" x2="302.098" y2="377.337"><stop offset="0" stop-color="#BD924D"/><stop offset="1" stop-color="#EBDF91"/></linearGradient><path d="M301.6 408.4c-4.1-10-41.4-101.8-41.9-103.1-.4-1-1-1.5-2.1-1.4-2.3.1-13 0-16.1 0-1 0-1.5.5-1.8 1.4-.8 2-33 82.5-40.6 101.6-1.8 4.6-1.7 5.2 1.9 8.4.2.1.5.2.7.4 6.9 5.2 40.7 30.6 45.9 34.5 1.1.8 2.3.9 3.6.4 3.7-2.6 47.9-35.3 48.9-36.1 1.9-1.7 2.5-3.7 1.5-6.1z" fill="url(#SVGID_00000090255948487671132050000017940315145751482758_)"/><linearGradient id="SVGID_00000049199234448542379930000003245677502453725063_" gradientUnits="userSpaceOnUse" x1="360.03" y1="316.792" x2="452.875" y2="316.792"><stop offset="0" stop-color="#BD924D"/><stop offset="1" stop-color="#EBDF91"/></linearGradient><path d="M451.4 300.7c-7.6-3-15.2-6-22.9-9-3.4-1.3-6.8-2.6-10.1-3.9-3.4-1.4-6.7-2.8-10.2-4l-14.4-5.7c-1-.4-2.1-.8-3-1.4-2-1.2-3.9-.8-5 1.3-2.9 5.6-5.6 11.2-8.4 16.9-5.1 10.3-10.3 20.6-16.8 30.1-1.2 1.7-.8 3.6.8 4.8 1.2.9 2.4 1.8 3.6 2.8l13.7 10.3c4.9 3.7 16.8 12.6 17.7 13.5 1.4 1.3 2.9 1.3 4.5.5 2.7-1.3 5.1-3.1 7.4-5.1.4-.3.8-.6 1.2-1 3.2-2.7 6.3-5.3 9.2-8.4l3.3-3c4.3-4 8.2-8.5 12.2-12.7 2.8-2.9 5.3-6 8-9 .8-.9 1.5-2 2.5-2.7.7-1.3 1.8-2.3 2.6-3.5 1.8-2.5 3.8-4.9 5.2-7.7.7-1.5.4-2.5-1.1-3.1z" fill="url(#SVGID_00000049199234448542379930000003245677502453725063_)"/><linearGradient id="SVGID_00000052808263123273594940000000171395250690913167_" gradientUnits="userSpaceOnUse" x1="257.305" y1="84.532" x2="294.241" y2="84.532"><stop offset="0" stop-color="#BD924D"/><stop offset="1" stop-color="#EBDF91"/></linearGradient><path d="M293 82.4c-1.2-1.4-2.3-2.9-3.4-4.4-3-3.8-11.5-14.8-12.9-16.4-2-2.7-4-5.4-6.2-8-2.4-3.2-5.5-5.6-9.2-7.1-2.2-.8-3.8.4-3.8 2.7v13.9c-.4 3.4.6 6.5 2.3 9.5.3.6 7.1 15.3 10.2 22.1 2 4.5 4 8.9 6.1 13.3 1.2 3 2.6 5.9 4 8.7.7 1.6 1.3 3.2 2.1 4.7.9 1.7 3.6 1.7 4.5 0 2.2-4.3 6.9-30.7 7.5-34.9.2-1.5 0-2.9-1.2-4.1z" fill="url(#SVGID_00000052808263123273594940000000171395250690913167_)"/><linearGradient id="SVGID_00000153703803583371516950000002373383941786428594_" gradientUnits="userSpaceOnUse" x1="267.307" y1="343.311" x2="386.229" y2="343.311"><stop offset="0" stop-color="#BD924D"/><stop offset="1" stop-color="#EBDF91"/></linearGradient><path d="M385.4 367.1c-1.7-1.3-3.4-2.6-5.1-3.8-6-4.5-27.3-22.8-29.9-25.1-2.6-2.4-10.6-9.6-12-10.9-2-1.9-4.3-3.7-6.1-5.8-2.8-2.2-29.1-27.9-32.5-31.1l-5.2-5.3c-2.3-2.3-4.7-4.6-7-7-.6-.7-1.3-1-2.2-.8-.4.5-.8 1.1-1.1 1.6-1.6 2.4-3 4.9-4.7 7.1-1.6 2.9-3.7 5.5-5.6 8.2-1.8 2.6-3.7 5.2-5.7 7.6-.9 1.1-1.4 2.2-.7 3.6 1.4 2.4 2.4 4.9 3.6 7.3l2.5 5.1 21.3 44.4 8.8 18.4c1.7 3.6 10.9 22.6 13.3 27.6.6 1.3 1.3 1.4 2.5.7.3-.2.6-.4 1-.7l9.9-5.8c4-2.4 22.4-13.3 27.2-16.2l16.9-10c3.5-2.1 7-4.3 10.6-6.4 1.3-.6 1.4-1.8.2-2.7z" fill="url(#SVGID_00000153703803583371516950000002373383941786428594_)"/><linearGradient id="SVGID_00000016051414163413555190000013776324650402206890_" gradientUnits="userSpaceOnUse" x1="267.721" y1="174.631" x2="399.234" y2="174.631"><stop offset="0" stop-color="#BD924D"/><stop offset="1" stop-color="#EBDF91"/></linearGradient><path d="M398.4 212.7c-3.1-6.7-6.1-13.5-9.1-20.2l-20.4-45.6-10.4-23.1-5.5-12.1-2.3-5.3-3.7-8.2c-.3-.7-.1-1.3.4-1.9 1.7-2.3 8.2-11.3 9.7-13.2 2.6-3.4 7.8-10.9 7.9-11.3 1.8-3.9 2.5-7.9 1.7-12.1-1.8-9-7.4-15.5-14.3-20.9-1.6-1.3-3.2-2.6-4.7-4.1-5-4.9-10-9.6-16.3-12.8h-1.6c-1.2.8-1.3 2-1 3.3 1.2 4.4 1.7 8.9 1.7 13.5.6 5.4-.1 10.8-.3 16.2 0 .8-.3 1.6-.8 2.4-.7 1.1-4.1 6.3-5.2 7.7-2.6 3.1-5.4 5.9-8.2 8.8-3.5 3.5-7.1 6.9-10.8 10.2-.5.4-.7 1-.7 1.6-1.2 8.6-2.4 17.2-3.7 25.7-.3 1.8-.2 3.7-1.1 5.3l-21.6 39.2-9.7 17.6c-.9 1.6-.7 2.4.7 3.6l3.5 2.9 11.3 9.3c1.3 1.1 2 1.1 3.5.2 5.6-3.4 11.2-6.9 16.7-10.3 4.2-2.6 18.8-11.6 21.7-13.3.7-.4 1.4-.7 2.2-.4 2.2 2.3 4.1 5 6.1 7.5 5.3 6.6 16.4 20.6 16.8 21 1.3 1.5 1 2.8-.8 3.7-1.8.9-3.6 1.8-5.5 2.7-.8.4-1.4 1-1.5 1.9-.2 5-.3 10-.5 15.1-.2 7-.4 14-.5 21-.1 3.7-.2 7.4-.3 11l-.5 20.7c-.2 5.9-.4 11.9-.5 17.8-.2 6.3-.3 12.6-.6 18.9-.3 5.3-.3 10.5.9 15.7.2.9.5 1.8.9 2.6 1.8 3.4 4.6 2.7 6.4 1 2-1.8 3.4-4 4.7-6.3-.1 0-.2-.1-.3-.2l.3.2c2.5-3.7 4.5-7.7 6.6-11.6 7.2-13.7 13.7-27.8 20.1-41.9 5.2-11.6 10.4-23.2 15.4-34.8.4-1 .9-2.1 1.8-2.9.1-.3 0-.6.2-.9 1.2-2.5 1.9-5.2 2.2-8-.1-2.4 0-4.7-1-6.9z" fill="url(#SVGID_00000016051414163413555190000013776324650402206890_)"/><linearGradient id="SVGID_00000023966076429127419490000007539949089112367796_" gradientUnits="userSpaceOnUse" x1="47.125" y1="316.792" x2="139.97" y2="316.792"><stop offset="0" stop-color="#BD924D"/><stop offset="1" stop-color="#EBDF91"/></linearGradient><path d="M47.5 303.8c1.4 2.8 3.3 5.2 5.2 7.7.9 1.2 1.9 2.2 2.6 3.5 1 .7 1.7 1.8 2.5 2.7 2.7 3 5.2 6.1 8 9 4.1 4.2 7.9 8.7 12.2 12.7l3.3 3c2.8 3 6 5.7 9.2 8.4.4.3.8.6 1.2 1 2.3 2 4.6 3.8 7.4 5.1 1.6.8 3.1.8 4.5-.5.9-.9 12.8-9.8 17.7-13.5l13.7-10.3c1.2-.9 2.4-1.8 3.6-2.8 1.6-1.2 2-3.1.8-4.8-6.5-9.5-11.7-19.8-16.8-30.1-2.8-5.6-5.4-11.3-8.4-16.9-1.1-2.1-2.9-2.5-5-1.3-.9.6-2 .9-3 1.4l-14.4 5.7c-3.4 1.2-6.8 2.6-10.2 4-3.4 1.3-6.8 2.6-10.1 3.9-7.6 3-15.2 6-22.9 9-1.5.6-1.8 1.6-1.1 3.1z" fill="url(#SVGID_00000023966076429127419490000007539949089112367796_)"/><linearGradient id="SVGID_00000119809483676697686360000007626468514917278647_" gradientUnits="userSpaceOnUse" x1="205.758" y1="84.532" x2="242.695" y2="84.532"><stop offset="0" stop-color="#BD924D"/><stop offset="1" stop-color="#EBDF91"/></linearGradient><path d="M207 82.4c1.2-1.4 2.3-2.9 3.4-4.4 3-3.8 11.5-14.8 12.9-16.4 2-2.7 4-5.4 6.2-8 2.4-3.2 5.5-5.6 9.2-7.1 2.2-.8 3.8.4 3.8 2.7v13.9c.4 3.4-.6 6.5-2.3 9.5-.3.6-7.1 15.3-10.2 22.1-2 4.5-4 8.9-6.1 13.3-1.2 3-2.6 5.9-4 8.7-.7 1.6-1.3 3.2-2.1 4.7-.9 1.7-3.6 1.7-4.5 0-2.2-4.3-6.9-30.7-7.5-34.9-.2-1.5 0-2.9 1.2-4.1z" fill="url(#SVGID_00000119809483676697686360000007626468514917278647_)"/><linearGradient id="SVGID_00000003063163389913198560000009575529945536725652_" gradientUnits="userSpaceOnUse" x1="113.77" y1="343.311" x2="232.693" y2="343.311"><stop offset="0" stop-color="#BD924D"/><stop offset="1" stop-color="#EBDF91"/></linearGradient><path d="M114.6 367.1c1.7-1.3 3.4-2.6 5.1-3.8 6-4.5 27.3-22.8 29.9-25.1 2.6-2.4 10.6-9.6 12-10.9 2-1.9 4.3-3.7 6.1-5.8 2.8-2.2 29.1-27.9 32.5-31.1l5.2-5.3c2.3-2.3 4.7-4.6 7-7 .6-.7 1.3-1 2.2-.8.4.5.8 1.1 1.1 1.6 1.6 2.4 3 4.9 4.7 7.1 1.6 2.9 3.7 5.5 5.6 8.2 1.8 2.6 3.7 5.2 5.7 7.6.9 1.1 1.4 2.2.7 3.6-1.4 2.4-2.4 4.9-3.6 7.3l-2.5 5.1-21.3 44.4-8.8 18.4c-1.7 3.6-10.9 22.6-13.3 27.6-.6 1.3-1.3 1.4-2.5.7-.3-.2-.6-.4-1-.7l-9.9-5.8c-4-2.4-22.4-13.3-27.2-16.2l-16.9-10c-3.5-2.1-7-4.3-10.6-6.4-1.3-.6-1.4-1.8-.2-2.7z" fill="url(#SVGID_00000003063163389913198560000009575529945536725652_)"/><linearGradient id="SVGID_00000115495867946463200080000017535333110972693634_" gradientUnits="userSpaceOnUse" x1="100.766" y1="174.631" x2="232.279" y2="174.631"><stop offset="0" stop-color="#BD924D"/><stop offset="1" stop-color="#EBDF91"/></linearGradient><path d="M100.9 219.5c.3 2.8.9 5.5 2.2 8l.2.9c.9.8 1.3 1.9 1.8 2.9 5 11.7 10.1 23.3 15.4 34.8 6.4 14.1 12.9 28.2 20.1 41.9 2.1 3.9 4.1 7.9 6.6 11.6.1 0 .2-.1.3-.2l-.3.2c1.3 2.3 2.7 4.6 4.7 6.3 1.9 1.7 4.7 2.4 6.4-1 .4-.8.7-1.7.9-2.6 1.2-5.2 1.2-10.4.9-15.7-.3-6.3-.4-12.6-.6-18.9-.2-5.9-.4-11.9-.5-17.8-.2-6.9-.4-13.8-.5-20.7-.1-3.7-.2-7.4-.3-11-.2-7-.4-14-.5-21-.2-5-.3-10-.5-15.1-.1-.9-.7-1.5-1.5-1.9-1.8-.9-3.6-1.8-5.5-2.7-1.8-.9-2.1-2.2-.8-3.7.3-.4 11.5-14.4 16.8-21 2-2.5 3.9-5.1 6.1-7.5.8-.3 1.5-.1 2.2.4 2.9 1.8 17.5 10.8 21.7 13.3 5.6 3.4 11.2 6.9 16.7 10.3 1.5.9 2.1.9 3.5-.2l11.3-9.3c1.2-1 2.3-2 3.5-2.9 1.4-1.1 1.6-2 .7-3.6-3.2-5.9-6.4-11.7-9.7-17.6l-21.6-39.2c-.9-1.6-.8-3.5-1.1-5.3-1.3-8.6-2.5-17.2-3.7-25.7-.1-.6-.2-1.2-.7-1.6-3.7-3.3-7.3-6.7-10.8-10.2-2.8-2.9-5.6-5.7-8.2-8.8-1.2-1.4-4.6-6.6-5.2-7.7-.5-.8-.8-1.6-.8-2.4-.2-5.4-.9-10.8-.3-16.2 0-4.6.5-9.1 1.7-13.5.4-1.3.3-2.4-1-3.3h-1.6c-6.3 3.1-11.4 7.9-16.3 12.8-1.5 1.5-3.1 2.7-4.7 4.1-7 5.5-12.6 11.9-14.3 20.9-.8 4.2-.1 8.3 1.7 12.1.2.4 5.4 7.9 7.9 11.3 1.5 1.9 8 10.9 9.7 13.2.5.6.7 1.2.4 1.9l-3.7 8.2-2.3 5.3c-1.8 4-3.7 8-5.5 12.1l-10.4 23.1-20.4 45.6-9.1 20.2c-1.3 2.3-1.2 4.6-1 6.9z" fill="url(#SVGID_00000115495867946463200080000017535333110972693634_)"/><linearGradient id="SVGID_00000070103927774875938620000006684821824984305034_" gradientUnits="userSpaceOnUse" x1="283.719" y1="274.335" x2="333.422" y2="274.335"><stop offset="0" stop-color="#BD924D"/><stop offset="1" stop-color="#EBDF91"/></linearGradient><path d="M333.4 262.9c0-2.4-1.1-4-3.2-4.8-1-.4-38.6-14.8-43-16.5-2.5-1-3.9.2-3.4 2.9l1.5 8c.3 1.9 1 3.8.8 5.7.2.2.4.4.4.8l1.3 7.4c.4 2.4.7 4.9 2.9 6.6 1.2.9 38.9 32.9 39.9 33.8.5.4 1 .8 1.7.6 1.1-.3 1.2-1.1 1.2-2.1-.1-14.1-.1-28.3-.1-42.4z" fill="url(#SVGID_00000070103927774875938620000006684821824984305034_)"/><linearGradient id="SVGID_00000013888575228684606970000005356718098875377295_" gradientUnits="userSpaceOnUse" x1="166.522" y1="274.335" x2="216.226" y2="274.335"><stop offset="0" stop-color="#BD924D"/><stop offset="1" stop-color="#EBDF91"/></linearGradient><path d="M166.5 262.9c0-2.4 1.1-4 3.2-4.8 1-.4 38.6-14.8 43-16.5 2.5-1 3.9.2 3.4 2.9l-1.5 8c-.3 1.9-1 3.8-.8 5.7-.2.2-.4.4-.4.8l-1.3 7.4c-.4 2.4-.7 4.9-2.9 6.6-1.2.9-38.9 32.9-39.9 33.8-.5.4-1 .8-1.7.6-1.1-.3-1.2-1.1-1.2-2.1.1-14.1.2-28.3.1-42.4z" fill="url(#SVGID_00000013888575228684606970000005356718098875377295_)"/><linearGradient id="SVGID_00000154403167888362530090000016582877882388267403_" gradientUnits="userSpaceOnUse" x1="222.257" y1="268.815" x2="277.743" y2="268.815"><stop offset="0" stop-color="#BD924D"/><stop offset="1" stop-color="#EBDF91"/></linearGradient><path d="M277.6 268.5l-4-18.6c-.1-.6-.2-1.3-.4-1.9-.7-3.6-2.1-6.3-5.6-6.7-3.4 0-24.1.1-25.8.1-4.1.2-10.5-.3-12.3 1.2-.8.7-2.4 3.1-2.8 5.2-1.3 6.4-2.7 12.7-4.1 19.1-.6 2.5-.7 5 .7 7.3l.4.3 13.5 18.7c1.1 1.6 2.5 2.8 4.6 3.1 1.7.5 3.4.2 5.1.2 3.4 0 6.7 0 10.1.1.3 0 .6 0 .9-.2 1.9-.1 3.4-1 4.5-2.5 3.1-4.2 13.2-17.9 13.7-18.6 1.3-2.2 2-4.3 1.5-6.8z" fill="url(#SVGID_00000154403167888362530090000016582877882388267403_)"/></svg>